<svg id="Capa_1" enable-background="new 0 0 512 512" height="512" viewBox="0 0 512 512" width="512" xmlns="http://www.w3.org/2000/svg"><g><g><g><path d="m333.781 274.401h-155.563v-78.768c0-29.834 24.185-54.019 54.019-54.019h47.526c29.834 0 54.019 24.185 54.019 54.019v78.768z" fill="#0d5f7f"/><path d="m333.781 195.633v78.768h-28.116v-78.768c0-29.826-24.192-54.018-54.018-54.018h28.116c29.826 0 54.018 24.192 54.018 54.018z" fill="#094c66"/><path d="m297.479 144.592-41.48 79.004-41.48-79.004c5.55-1.921 11.517-2.973 17.722-2.973h47.516c6.205.001 12.173 1.052 17.722 2.973z" fill="#fff"/><path d="m277.169 183.269-21.17 40.327-21.169-40.327 15.247-41.649h11.845z" fill="#fb4a59"/><g><g><circle cx="201.261" cy="89.811" fill="#fdb0a0" r="16.679"/></g><g><circle cx="310.738" cy="89.811" fill="#f69583" r="16.679"/></g><g><path d="m255.999 146.38c-24.322 0-44.038-19.717-44.038-44.038v-15.898c0-24.322 19.717-44.038 44.038-44.038 24.322 0 44.038 19.716 44.038 44.038v15.897c0 24.322-19.716 44.039-44.038 44.039z" fill="#ffcec0"/><path d="m300.034 86.44v15.898c0 24.327-19.718 44.045-44.035 44.045-3.4 0-6.699-.38-9.879-1.11 19.568-4.489 34.166-22.007 34.166-42.935v-15.898c0-12.158-4.929-23.167-12.898-31.136-5.739-5.739-13.068-9.909-21.268-11.789 3.18-.73 6.479-1.11 9.879-1.11 12.159 0 23.167 4.929 31.136 12.899 7.97 7.969 12.899 18.977 12.899 31.136z" fill="#fdb0a0"/></g><path d="m314.45 74.567c-8.821.875-26.408 1.821-41.485-2.284-10.719-2.918-18.071-12.78-18.071-23.889v-16.807c0-8.522 6.908-15.43 15.43-15.43h11.608c21.082 0 38.173 17.09 38.173 38.173v13.992c0 3.228-2.442 5.926-5.655 6.245z" fill="#7a7179"/><path d="m320.107 54.332v13.992c0 3.221-2.441 5.923-5.662 6.239-6.081.61-16.321 1.243-27.047.226.893-.079 1.718-.147 2.486-.226 3.21-.316 5.651-3.018 5.651-6.239v-13.992c0-18.366-12.953-33.693-30.211-37.343 1.56-.542 3.244-.836 4.996-.836h11.608c21.09 0 38.179 17.089 38.179 38.179z" fill="#685e67"/><path d="m197.493 76.275c9.99 1.055 31.565 2.427 49.967-2.583 12.636-3.44 21.302-15.065 21.302-28.16v-19.812c0-10.045-8.143-18.189-18.189-18.189h-13.683c-24.851 0-44.997 20.146-44.997 44.997v17.508c.001 3.204 2.414 5.902 5.6 6.239z" fill="#9b8f99"/><path d="m268.76 25.715v19.813c0 13.1-8.669 24.73-21.294 28.166-15.202 4.137-32.562 3.922-43.763 3.131 6.318-.497 12.84-1.458 18.999-3.131 12.636-3.436 21.305-15.066 21.305-28.166v-19.813c0-8.567-5.934-15.756-13.913-17.677 2.215-.339 4.487-.509 6.793-.509h13.687c10.048 0 18.186 8.149 18.186 18.186z" fill="#8b8088"/></g></g><g><g><g><path d="m151.335 301.881h-69.776v-28.033c0-13.382 10.848-24.229 24.229-24.229h21.317c13.382 0 24.229 10.848 24.229 24.229v28.033z" fill="#fcc16d"/><path d="m151.335 273.849v28.033h-18.241v-28.033c0-13.378-10.851-24.229-24.229-24.229h18.241c13.378-.001 24.229 10.851 24.229 24.229z" fill="#fca62f"/><g><path d="m116.447 255.933c-10.909 0-19.753-8.844-19.753-19.753v-7.131c0-10.909 8.844-19.753 19.753-19.753 10.909 0 19.753 8.844 19.753 19.753v7.131c0 10.91-8.844 19.753-19.753 19.753z" fill="#ffcec0"/><path d="m136.202 229.05v7.128c0 10.915-8.848 19.756-19.756 19.756-3.001 0-5.84-.665-8.381-1.862 6.724-3.15 11.375-9.973 11.375-17.894v-7.128c0-5.45-2.208-10.391-5.783-13.966-1.614-1.614-3.504-2.945-5.592-3.921 2.541-1.203 5.38-1.869 8.381-1.869 5.457 0 10.391 2.216 13.966 5.79 3.581 3.575 5.79 8.515 5.79 13.966z" fill="#fdb0a0"/></g></g><g><path d="m221.111 301.881h-69.776v-28.033c0-13.382 10.848-24.229 24.229-24.229h21.317c13.382 0 24.229 10.848 24.229 24.229v28.033z" fill="#27d1b3"/><path d="m221.111 273.849v28.033h-18.241v-28.033c0-13.378-10.851-24.229-24.229-24.229h18.241c13.378-.001 24.229 10.851 24.229 24.229z" fill="#20b69f"/><g><path d="m186.223 255.933c-10.909 0-19.753-8.844-19.753-19.753v-7.131c0-10.909 8.844-19.753 19.753-19.753 10.909 0 19.753 8.844 19.753 19.753v7.131c0 10.91-8.844 19.753-19.753 19.753z" fill="#ffcec0"/><path d="m205.978 229.05v7.128c0 10.915-8.848 19.756-19.756 19.756-3.001 0-5.84-.665-8.381-1.862 6.724-3.15 11.375-9.973 11.375-17.894v-7.128c0-5.45-2.208-10.391-5.783-13.966-1.614-1.614-3.504-2.945-5.592-3.921 2.541-1.203 5.38-1.869 8.381-1.869 5.457 0 10.391 2.216 13.966 5.79 3.581 3.575 5.79 8.515 5.79 13.966z" fill="#fdb0a0"/></g></g><g><path d="m290.887 301.881h-69.776v-28.033c0-13.382 10.848-24.229 24.229-24.229h21.317c13.382 0 24.229 10.848 24.229 24.229v28.033z" fill="#fb4a59"/><path d="m290.888 273.849v28.033h-18.241v-28.033c0-13.378-10.851-24.229-24.229-24.229h18.241c13.377-.001 24.229 10.851 24.229 24.229z" fill="#f82f40"/><g><path d="m255.999 255.933c-10.909 0-19.753-8.844-19.753-19.753v-7.131c0-10.909 8.844-19.753 19.753-19.753 10.909 0 19.753 8.844 19.753 19.753v7.131c0 10.91-8.843 19.753-19.753 19.753z" fill="#ffcec0"/><path d="m275.754 229.05v7.128c0 10.915-8.848 19.756-19.756 19.756-3.001 0-5.84-.665-8.381-1.862 6.724-3.15 11.375-9.973 11.375-17.894v-7.128c0-5.45-2.208-10.391-5.783-13.966-1.614-1.614-3.504-2.945-5.592-3.921 2.541-1.203 5.38-1.869 8.381-1.869 5.457 0 10.391 2.216 13.966 5.79 3.582 3.575 5.79 8.515 5.79 13.966z" fill="#fdb0a0"/></g></g><g><path d="m360.664 301.881h-69.776v-28.033c0-13.382 10.848-24.229 24.229-24.229h21.317c13.382 0 24.229 10.848 24.229 24.229v28.033z" fill="#8b8088"/><path d="m360.664 273.849v28.033h-18.241v-28.033c0-13.378-10.851-24.229-24.229-24.229h18.241c13.378-.001 24.229 10.851 24.229 24.229z" fill="#7a7179"/><g><path d="m325.776 255.933c-10.909 0-19.753-8.844-19.753-19.753v-7.131c0-10.909 8.844-19.753 19.753-19.753 10.909 0 19.753 8.844 19.753 19.753v7.131c-.001 10.91-8.844 19.753-19.753 19.753z" fill="#c86f5c"/><path d="m345.53 229.05v7.128c0 10.915-8.848 19.756-19.756 19.756-3.001 0-5.84-.665-8.381-1.862 6.724-3.15 11.375-9.973 11.375-17.894v-7.128c0-5.45-2.208-10.391-5.783-13.966-1.614-1.614-3.504-2.945-5.592-3.921 2.541-1.203 5.38-1.869 8.381-1.869 5.457 0 10.391 2.216 13.966 5.79 3.582 3.575 5.79 8.515 5.79 13.966z" fill="#ba5d4f"/></g></g><g><path d="m430.44 301.881h-69.776v-28.033c0-13.382 10.848-24.229 24.229-24.229h21.317c13.382 0 24.229 10.848 24.229 24.229v28.033z" fill="#68dbf9"/><path d="m430.44 273.849v28.033h-18.241v-28.033c0-13.378-10.851-24.229-24.229-24.229h18.241c13.378-.001 24.229 10.851 24.229 24.229z" fill="#24d1f8"/><g><path d="m395.552 255.933c-10.909 0-19.753-8.844-19.753-19.753v-7.131c0-10.909 8.844-19.753 19.753-19.753 10.909 0 19.753 8.844 19.753 19.753v7.131c0 10.91-8.844 19.753-19.753 19.753z" fill="#ffcec0"/><path d="m415.306 229.05v7.128c0 10.915-8.848 19.756-19.756 19.756-3.001 0-5.84-.665-8.381-1.862 6.724-3.15 11.375-9.973 11.375-17.894v-7.128c0-5.45-2.208-10.391-5.783-13.966-1.614-1.614-3.504-2.945-5.592-3.921 2.541-1.203 5.38-1.869 8.381-1.869 5.457 0 10.391 2.216 13.966 5.79 3.582 3.575 5.79 8.515 5.79 13.966z" fill="#fdb0a0"/></g></g></g><g><path d="m455.41 299.951c2.811 0 5.074 2.318 5.005 5.128-2.721 110.617-93.245 199.453-204.517 199.453-109.375 0-198.702-85.831-204.302-193.813-.303-5.843 4.3-10.768 10.151-10.768z" fill="#68dbf9"/><path d="m460.415 305.081c-2.72 110.617-93.249 199.447-204.516 199.447-6.089 0-12.109-.27-18.068-.79 102.848-8.989 183.888-94.089 186.458-198.657.07-2.81-2.19-5.129-4.999-5.129h36.116c2.82 0 5.079 2.32 5.009 5.129z" fill="#24d1f8"/><g><path d="m460.415 305.081c-1.72 69.932-38.535 131.165-93.509 166.74h-.01l-52.164-30.966c-3.08-1.82-4.959-5.129-4.959-8.709v-12.509c0-1.9.53-3.76 1.54-5.369l26.777-42.845c2.58-4.129 1.85-9.529-1.75-12.829l-2.75-2.52c-1.79-1.65-2.93-3.879-3.21-6.299l-1.78-15.378c-.44-3.869-3.06-7.129-6.739-8.409l-13.188-4.58c-3.01-1.04-5.349-3.44-6.319-6.479l-4.799-14.978h157.852c2.819.001 5.078 2.321 5.008 5.13z" fill="#a3e440"/><path d="m460.415 305.081c-1.72 69.932-38.535 131.165-93.509 166.74h-.01l-19.778-11.739c45.825-36.496 75.631-92.249 77.171-155.002.07-2.81-2.19-5.129-4.999-5.129h36.116c2.82.001 5.079 2.321 5.009 5.13z" fill="#99d53b"/></g><g><path d="m162.851 338.644-12.813 12.944c-1.146 1.158-2.555 2.022-4.106 2.519l-29.467 9.445c-3.847 1.233-6.593 4.635-6.987 8.656l-1.002 10.232c-.649 6.62 5.153 12.056 11.717 10.98l31.251-5.125c2.965-.486 5.993.369 8.265 2.336l17.877 15.471c1.633 1.413 2.771 3.311 3.249 5.417l2.938 12.957c.76 3.353 3.17 6.091 6.399 7.271l15.83 5.787c5.839 2.135 12.205-1.448 13.411-7.547l9.75-49.32c.439-2.22.121-4.524-.902-6.543l-6.662-13.14c-.695-1.37-1.068-2.881-1.093-4.417l-.268-16.687c-.098-6.096-5.521-10.724-11.557-9.862l-40.065 5.723c-2.187.314-4.212 1.333-5.765 2.903z" fill="#27d1b3"/><path d="m229.165 380.672-9.752 49.314c-1.205 6.096-7.574 9.681-13.407 7.544l-12.891-4.709c.476-.861.82-1.813 1.023-2.835l9.741-49.314c.446-2.228.122-4.527-.901-6.552l-6.663-13.134c-.689-1.367-1.063-2.886-1.094-4.415l-.263-16.688c-.051-2.977-1.367-5.6-3.402-7.412l17.123-2.45c6.035-.861 11.463 3.767 11.554 9.863l.273 16.688c.02 1.529.395 3.048 1.094 4.415l6.663 13.134c1.023 2.025 1.337 4.324.902 6.551z" fill="#20b69f"/></g></g></g></g><path d="m464.363 296.194c-2.375-2.434-5.554-3.774-8.952-3.774h-17.47v-18.602c0-11.936-6.683-22.644-16.895-28.047 1.134-2.994 1.759-6.235 1.759-9.621v-7.131c0-15.027-12.226-27.253-27.253-27.253s-27.253 12.226-27.253 27.253v7.131c0 3.386.626 6.628 1.76 9.622-3.622 1.916-6.801 4.497-9.393 7.567-2.593-3.071-5.772-5.653-9.394-7.57 1.133-2.993 1.758-6.234 1.758-9.619v-7.131c0-9.27-4.656-17.468-11.748-22.394v-11.023c0-7.043-1.192-13.969-3.543-20.589-1.387-3.903-5.678-5.945-9.577-4.557-3.903 1.386-5.944 5.674-4.558 9.578 1.776 5.003 2.678 10.241 2.678 15.568v6.177c-.169-.003-.336-.013-.505-.013-15.027 0-27.253 12.226-27.253 27.253v7.131c0 3.391.628 6.637 1.765 9.634-3.608 1.926-6.786 4.526-9.385 7.614-2.603-3.094-5.79-5.695-9.412-7.62 1.135-2.996 1.762-6.239 1.762-9.628v-7.131c0-8.672-4.077-16.405-10.409-21.4l28.065-53.455c1.002.512 1.989 1.055 2.953 1.641 1.217.738 2.56 1.09 3.886 1.09 2.533 0 5.007-1.285 6.418-3.609 2.149-3.541 1.021-8.153-2.519-10.303-3.794-2.303-7.815-4.169-11.984-5.593-.039-.012-.077-.028-.116-.039-1.51-.512-3.04-.966-4.586-1.359 5.481-6.332 9.446-14.003 11.332-22.456 1.459.272 2.945.424 4.446.424 13.333 0 24.18-10.847 24.18-24.179 0-6.904-2.924-13.298-7.816-17.794.325-1.178.504-2.417.504-3.697v-13.992c0-25.184-20.488-45.673-45.673-45.673h-11.607c-.186 0-.372.01-.558.014-4.712-5.295-11.569-8.639-19.196-8.639h-13.683c-28.947 0-52.497 23.55-52.497 52.497v17.507c0 .778.075 1.538.198 2.282-4.722 4.512-7.511 10.819-7.511 17.494 0 13.333 10.847 24.179 24.18 24.179 1.505 0 2.989-.154 4.446-.425 1.885 8.451 5.849 16.122 11.329 22.453-1.501.383-2.973.834-4.428 1.326-.331.088-.659.197-.982.333-23.814 8.494-40.908 31.261-40.908 57.956v11.023c-7.092 4.926-11.748 13.124-11.748 22.394v7.131c0 3.391.628 6.637 1.764 9.634-3.608 1.925-6.786 4.525-9.386 7.613-2.603-3.093-5.79-5.694-9.411-7.619 1.135-2.996 1.762-6.239 1.762-9.628v-7.131c0-15.027-12.226-27.253-27.253-27.253s-27.253 12.226-27.253 27.253v7.131c0 3.391.628 6.637 1.764 9.634-10.139 5.41-16.9 16.149-16.9 28.034v18.602h-12.31c-4.884 0-9.425 1.951-12.788 5.492-3.336 3.514-5.105 8.312-4.853 13.164 5.842 112.667 98.872 200.924 211.792 200.924 40.52 0 79.91-11.469 113.914-33.168 33.093-21.117 59.658-50.897 76.826-86.121 1.814-3.723.267-8.213-3.456-10.027-3.727-1.814-8.212-.267-10.028 3.456-7.414 15.212-16.736 29.314-27.655 42.041-10.529-6.334-21.517-11.94-32.888-16.812 12.369-31.066 19.348-66.683 20.175-103.95h60.054c-.586 15.634-3.019 31.128-7.238 46.091-1.124 3.987 1.196 8.13 5.184 9.254.681.192 1.365.283 2.039.283 3.273 0 6.282-2.161 7.215-5.466 4.789-16.985 7.439-34.598 7.876-52.35.08-3.395-1.18-6.605-3.553-9.037zm-81.064-67.176c0-6.756 5.497-12.252 12.253-12.252s12.253 5.497 12.253 12.252v7.131c0 6.756-5.497 12.252-12.253 12.252s-12.253-5.497-12.253-12.252zm-3.963 29.02c4.534 3.368 10.146 5.364 16.216 5.364s11.681-1.996 16.216-5.365c6.641 2.331 11.173 8.639 11.173 15.78v18.602h-54.777v-18.602c0-7.14 4.532-13.448 11.172-15.779zm-65.813-29.02c0-6.756 5.497-12.252 12.253-12.252s12.253 5.497 12.253 12.252v7.131c0 6.756-5.497 12.252-12.253 12.252s-12.253-5.497-12.253-12.252zm-3.953 29.027c4.533 3.364 10.14 5.357 16.206 5.357 6.072 0 11.684-1.997 16.22-5.367 6.637 2.333 11.168 8.641 11.168 15.783v18.602h-54.777v-18.602c0-7.118 4.603-13.45 11.183-15.773zm-14.361 59.133c1.68 5.266 5.798 9.486 11.005 11.285l13.186 4.579c.965.335 1.636 1.168 1.752 2.187l1.779 15.38c.486 4.195 2.467 8.085 5.593 10.965l2.75 2.52c.934.856 1.125 2.254.456 3.325l-16.454 26.327c-16.854-3.316-34.205-5.208-51.878-5.625v-80.701h28.684zm42.499 128.564-19.161-11.375c-.786-.464-1.274-1.327-1.274-2.251v-12.508c0-.495.136-.973.4-1.395l4.744-7.591c10.317 2.427 20.41 5.432 30.238 8.99-3.507 7.339-7.352 14.346-11.536 20.957-1.119 1.767-2.259 3.483-3.411 5.173zm-26.803 1.532 17.753 10.539c-19.008 23.003-41.543 36.455-65.26 38.802v-93.491c14.725.365 29.208 1.805 43.337 4.288l-1.775 2.84c-1.758 2.802-2.687 6.037-2.687 9.355v12.508c0 6.206 3.313 12.017 8.632 15.159zm-170.438-83.57 7.756-2.486c2.689-.862 5.16-2.378 7.146-4.385l12.813-12.944c.4-.404.931-.671 1.495-.751l40.065-5.723c1.016-.148 1.739.314 2.076.602s.904.924.921 1.956l.268 16.688c.043 2.659.701 5.317 1.903 7.687l6.662 13.139c.264.521.348 1.125.234 1.697l-2.162 10.938c-13.734 1.606-27.204 4.126-40.319 7.537l-14.707-12.728c-3.234-2.798-7.315-4.3-11.518-4.3-.953 0-1.912.077-2.869.234l-5.295.868c-1.677-5.888-3.168-11.902-4.469-18.029zm-10.411 20.467-11.077 1.817c-1.109.182-1.869-.345-2.221-.675-.353-.33-.928-1.052-.818-2.172l1.002-10.232c.102-1.044.813-1.925 1.812-2.245l7.375-2.364c1.172 5.373 2.481 10.667 3.927 15.871zm86.522 21.45-4.523 22.88c-.204 1.033-.896 1.559-1.289 1.78s-1.2.539-2.189.178l-15.83-5.787c-.842-.308-1.462-1.013-1.66-1.886l-2.705-11.929c9.232-2.207 18.642-3.956 28.196-5.236zm-63.922-9.955c.771-.125 1.554.095 2.144.606l7.415 6.417c-3.055 1.001-6.088 2.052-9.097 3.153-1.263-3.169-2.462-6.392-3.606-9.66zm21.228 19.084 2.575 11.355c1.33 5.86 5.493 10.591 11.138 12.655l15.83 5.787c1.965.718 4.013 1.074 6.055 1.074 2.992 0 5.968-.764 8.64-2.267 4.495-2.53 7.647-6.883 8.648-11.943l5.426-27.448c5.364-.426 10.766-.704 16.201-.838v93.491c-29.14-2.884-56.5-22.519-77.721-56.047-4.184-6.61-8.029-13.616-11.535-20.954 4.852-1.757 9.766-3.382 14.743-4.865zm109.503-122.33h-54.776v-18.602c0-7.142 4.531-13.45 11.169-15.782 4.535 3.37 10.148 5.367 16.219 5.367 6.065 0 11.673-1.994 16.206-5.357 6.591 2.32 11.182 8.622 11.182 15.773zm-51.15-143.336h2.156c1.403.651 2.838 1.244 4.306 1.769l-5.096 13.921-7.986-15.21c2.163-.311 4.372-.48 6.62-.48zm-12.775-62.671c0-.564.04-1.126.066-1.69 9.502-.165 20.057-1.145 29.903-3.825 4.422-1.204 8.47-3.212 12.009-5.841 2.916 1.99 6.147 3.504 9.556 4.432 6.986 1.902 14.403 2.804 21.347 3.141.129 1.254.195 2.518.195 3.784v15.898c0 20.147-16.391 36.538-36.538 36.538s-36.538-16.391-36.538-36.538zm48.79 142.605v7.131c0 6.756-5.497 12.252-12.253 12.252s-12.253-5.497-12.253-12.252v-7.131c0-6.756 5.497-12.252 12.253-12.252s12.253 5.497 12.253 12.252zm-12.253-27.252c-.977 0-1.942.054-2.893.155l-10.092-19.222 10.584-28.911c.797.037 1.596.061 2.402.061.805 0 1.605-.024 2.401-.061l10.584 28.911-10.092 19.222c-.952-.101-1.916-.155-2.894-.155zm22.397-36.993-5.096-13.92c1.468-.525 2.903-1.118 4.306-1.769h2.156c2.225 0 4.436.167 6.62.479zm32.342-65.814c-1.104 0-2.182-.217-3.2-.596v-11.95c0-1.28-.064-2.557-.158-3.832 2.974-.152 5.629-.366 7.811-.582.116-.011.228-.036.343-.05 2.701 1.653 4.384 4.598 4.384 7.832 0 5.061-4.119 9.178-9.18 9.178zm-28.806-75.334c16.913 0 30.673 13.76 30.673 30.672v12.88c-8.797.807-24.412 1.447-37.67-2.163-1.197-.326-2.351-.793-3.445-1.375 3.05-5.4 4.773-11.613 4.773-18.139v-19.811c0-.695-.036-1.382-.09-2.064zm-82.538 28.872c0-20.676 16.821-37.497 37.497-37.497h13.683c5.894 0 10.689 4.795 10.689 10.689v19.812c0 9.792-6.486 18.396-15.772 20.923-16.814 4.577-37.086 3.36-46.097 2.474zm-7.312 37.283c0-2.438.981-4.747 2.653-6.446.641.163 1.295.296 1.971.368 2.224.235 4.867.468 7.797.657-.027.685-.041 1.369-.041 2.054v11.949c-1.017.379-2.092.598-3.2.598-5.062-.001-9.18-4.118-9.18-9.18zm-6.364 105.822c0-18.042 10.332-33.706 25.383-41.418l28.055 53.435c-6.332 4.995-10.409 12.728-10.409 21.4v7.131c0 3.385.625 6.626 1.758 9.619-3.63 1.921-6.816 4.51-9.412 7.59-2.597-3.076-5.772-5.663-9.379-7.581 1.135-2.996 1.762-6.239 1.762-9.628v-7.131c0-15.027-12.226-27.253-27.253-27.253-.169 0-.337.01-.505.013zm-11.748 40.547v-7.131c0-6.756 5.497-12.252 12.253-12.252s12.253 5.497 12.253 12.252v7.131c0 6.756-5.497 12.252-12.253 12.252s-12.253-5.496-12.253-12.252zm-3.953 21.895c4.533 3.364 10.14 5.357 16.206 5.357 6.065 0 11.673-1.994 16.206-5.357 6.591 2.319 11.182 8.622 11.182 15.773v18.602h-9.947c-4.142 0-7.5 3.358-7.5 7.5s3.358 7.5 7.5 7.5h44.733v80.701c-4.415.104-8.812.292-13.184.58l1.306-6.609c.761-3.846.203-7.891-1.57-11.389l-6.662-13.14c-.179-.353-.277-.749-.283-1.145l-.268-16.687c-.081-5.058-2.334-9.842-6.182-13.126-3.848-3.283-8.926-4.756-13.934-4.041l-40.064 5.723c-3.783.54-7.347 2.333-10.035 5.048 0 0 0 0-.001.001l-12.812 12.944c-.296.299-.665.525-1.065.654l-5.928 1.9c-2.126-13.422-3.372-27.286-3.699-41.415h33.358c4.142 0 7.5-3.358 7.5-7.5s-3.358-7.5-7.5-7.5h-8.54v-18.602c.001-7.118 4.602-13.448 11.183-15.772zm-65.823-29.026c0-6.756 5.497-12.252 12.253-12.252s12.252 5.497 12.252 12.252v7.131c0 6.756-5.497 12.252-12.252 12.252-6.756 0-12.253-5.497-12.253-12.252zm-15.135 44.799c0-7.12 4.601-13.45 11.182-15.773 4.533 3.364 10.14 5.357 16.206 5.357 6.065 0 11.673-1.994 16.206-5.357 6.591 2.319 11.182 8.622 11.182 15.773v18.602h-54.776zm-29.222 34.423c.355-.374.975-.82 1.91-.82h57.265c.349 15.713 1.792 31.131 4.271 46.04l-9.107 2.919c-6.702 2.148-11.476 8.062-12.163 15.066l-1.002 10.233c-.538 5.492 1.463 10.806 5.49 14.58s9.46 5.426 14.905 4.533l13.098-2.148c1.462 4.32 3.025 8.563 4.683 12.726-11.398 4.883-22.411 10.505-32.962 16.857-27.414-31.939-44.8-72.824-47.139-117.927-.054-1.046.447-1.739.751-2.059zm56.825 131.245c9.156-5.357 18.67-10.146 28.492-14.351 3.882 8.224 8.169 16.064 12.848 23.457 9.316 14.718 19.787 27.042 31.107 36.807-27.472-9.88-52.15-25.679-72.447-45.913zm225.04 26.071 10.594 6.289c-9.495 5.335-19.384 9.847-29.567 13.515 6.638-5.73 12.982-12.342 18.973-19.804zm53.361-26.12c-8.684 8.661-18.18 16.535-28.402 23.494l-16.03-9.516c1.067-1.581 2.125-3.181 3.163-4.822 4.68-7.395 8.969-15.237 12.852-23.465 9.796 4.193 19.284 8.969 28.417 14.309zm-36.385-33.594c-9.093-3.328-18.401-6.201-27.893-8.609l13.665-21.866c4.499-7.201 3.22-16.592-3.042-22.332l-2.735-2.506c-.47-.433-.769-1.018-.842-1.645l-1.777-15.365c-.761-6.684-5.364-12.432-11.732-14.646l-13.199-4.584c-.768-.265-1.374-.89-1.626-1.679l-1.663-5.191h69.946c-.819 35.394-7.423 69.118-19.102 98.423z"/></g></svg>