<svg id="Layer_5" enable-background="new 0 0 64 64" height="512" viewBox="0 0 64 64" width="512" xmlns="http://www.w3.org/2000/svg"><g><g><g><path d="m62 12.83v41.17c0 1.1-.9 2-2 2h-22v-6-12-8h-8-4-4v-26c0-1.1.9-2 2-2h27.17c.29 0 .57.06.83.18v7.82c0 1.1.9 2 2 2h7.82c.12.26.18.54.18.83z" fill="#e6e9ed"/></g><g><path d="m46 26h12v10h-12z" fill="#f0d0b4"/></g><g><path d="m52 16h6v6h-6z" fill="#fcd770"/></g><g><path d="m26 6h22v4h-22z" fill="#4fc1e9"/></g><g><path d="m61.82 12h-7.82c-1.1 0-2-.9-2-2v-7.82c.22.1.42.24.59.41l8.82 8.82c.17.17.31.37.41.59z" fill="#b4dd7f"/></g><g><path d="m6 50h8v8h-8z" fill="#b4dd7f"/></g><g><path d="m6 30h32v28h-32z" fill="#fcd770"/></g><g><path d="m38 56v2h-8v-4-4h8z" fill="#b4dd7f"/></g><g><path d="m30 30h8v8h-8z" fill="#b4dd7f"/></g></g><g><circle cx="34" cy="34" r="1"/><circle cx="34" cy="54" r="1"/><circle cx="10" cy="54" r="1"/><path d="m19 39h4v-2h-2v-2h2v-2h-6v2h2z"/><path d="m11 39h4v-6h-2v4h-4v6h2z"/><path d="m9 33h2v2h-2z"/><path d="m31 43h4v-2h-6v6h2z"/><path d="m33 45h2v2h-2z"/><path d="m19 49h-2v6h6v-2h-4z"/><path d="m21 41h-8v6h2v-4h6z"/><path d="m9 45h2v2h-2z"/><path d="m23 43h4v-10h-2v8h-2z"/><path d="m25 47h-2v-2h-6v2h4v4h2v-2h4v-4h-2z"/><path d="m25 53h2v2h-2z"/><path d="m41 31h2v-6h-6v2h4z"/><path d="m41 61h-4v2h6v-6h-2z"/><path d="m3 58h-2v5h6v-2h-4z"/><path d="m3 27h4v-2h-6v6h2z"/><path d="m62.121 10.707-8.828-8.828c-.566-.567-1.32-.879-2.122-.879h-27.171c-1.654 0-3 1.346-3 3v25h-16v30h34v-30h-16v-25c0-.551.449-1 1-1h27v7c0 1.654 1.346 3 3 3h7v41c0 .552-.449 1-1 1h-15v2h15c1.654 0 3-1.346 3-3v-41.171c0-.802-.312-1.556-.879-2.122zm-33.121 20.293v8h8v10h-8v8h-14v-8h-8v-18zm-22 20h6v6h-6zm24 6v-6h6v6zm6-20h-6v-6h6zm16-27v-5.586l6.586 6.586h-5.586c-.551 0-1-.449-1-1z"/><path d="m25 11h24v-6h-24zm2-4h20v2h-20z"/><path d="m25 13h4v2h-4z"/><path d="m31 13h18v2h-18z"/><path d="m25 17h24v2h-24z"/><path d="m25 21h24v2h-24z"/><path d="m45 37h14v-12h-14zm2-10h10v8h-10z"/><path d="m41 39h18v2h-18z"/><path d="m57 43h2v2h-2z"/><path d="m41 43h14v2h-14z"/><path d="m45 47h14v2h-14z"/><path d="m41 47h2v2h-2z"/><path d="m41 51h18v2h-18z"/><path d="m59 15h-8v8h8zm-2 6h-4v-4h4z"/></g></g></svg>