<svg id="Layer_1" enable-background="new 0 0 512 512" height="512" viewBox="0 0 512 512" width="512" xmlns="http://www.w3.org/2000/svg"><g id="XMLID_76_"><g id="XMLID_338_"><g id="XMLID_1904_"><g id="XMLID_1906_"><g id="XMLID_1908_"><g id="XMLID_1909_"><g id="XMLID_1910_"><g id="XMLID_1911_"><g id="XMLID_1912_"><g id="XMLID_1913_"><g id="XMLID_1914_"><g id="XMLID_1915_"><g id="XMLID_1916_"><g id="XMLID_1917_"><g id="XMLID_1918_"><circle id="XMLID_1919_" cx="256" cy="256" fill="#324a5e" r="256"/></g></g></g></g></g></g></g></g></g></g></g></g></g></g><path id="XMLID_710_" d="m512 256c0-13.773-1.102-27.286-3.195-40.469l-95.838-95.838-13.501 75.342-95.63-22.627 118.128 118.129-58.022 7.522-186.827-186.827-9.523 45.676-83.693-7.661 41.052 41.052-41.052 14.148 91.577 91.577-118.558 56.554 155.753 155.753c14.086 2.401 28.559 3.669 43.329 3.669 141.385 0 256-114.615 256-256z" fill="#1f3742"/><g id="XMLID_444_"><path id="XMLID_455_" d="m412.966 119.692-44.421 44.422-28.208-28.208-36.501 36.501 64.708 64.71 80.923-80.924z" fill="#00cfb4"/><path id="XMLID_450_" d="m215.131 149.247-38.016-38.015-27.6 27.599-27.6-27.6-38.016 38.016 27.6 27.6-27.6 27.6 38.016 38.016 27.6-27.6 27.6 27.6 38.016-38.016-27.6-27.6z" fill="#ff6326"/><g id="XMLID_445_"><path id="XMLID_449_" d="m426.685 360.565h-346.907c-20.295 0-36.748-16.453-36.748-36.748v-2.799c0-20.295 16.453-36.748 36.748-36.748h346.907c20.296 0 36.748 16.453 36.748 36.748v2.799c.001 20.295-16.452 36.748-36.748 36.748z" fill="#ff6326"/><path id="XMLID_448_" d="m463.43 321.02v2.8c0 20.29-16.45 36.74-36.74 36.74h-173.46v-76.29h173.46c20.29 0 36.74 16.45 36.74 36.75z" fill="#ff1f3d"/><path id="XMLID_446_" d="m468.97 322.417c0-21.068-17.079-38.148-38.148-38.148h-119.322v76.296h119.322c21.069 0 38.148-17.08 38.148-38.148z" fill="#00cfb4"/></g></g></g></svg>