<svg id="Capa_1" enable-background="new 0 0 512 512" height="512" viewBox="0 0 512 512" width="512" xmlns="http://www.w3.org/2000/svg"><g><g><path d="m488.24 136.96v314.97c0 29.03-23.54 52.57-52.58 52.57h-287.75c-29.04 0-52.58-23.54-52.58-52.57v-391.86c0-29.03 23.54-52.57 52.58-52.57h210.87z" fill="#f6f1f1"/><path d="m488.24 136.96h-76.89c-29.03 0-52.57-23.54-52.57-52.58v-76.88" fill="#dfdfdf"/><path d="m250.02 166.07c0 62.48-50.65 113.13-113.13 113.13s-113.13-50.65-113.13-113.13 50.65-113.13 113.13-113.13c20.08 0 38.94 5.23 55.28 14.41 9.08 5.09 17.38 11.4 24.69 18.71 20.49 20.47 33.16 48.76 33.16 80.01z" fill="#61a2f9"/><path d="m192.17 67.35-55.28 98.72h-113.13c0-62.48 50.65-113.13 113.13-113.13 20.08 0 38.94 5.23 55.28 14.41z" fill="#dd636e"/><path d="m216.87 86.1-79.98 79.97v-113.13c31.23 0 59.5 12.65 79.97 33.12z" fill="#f6e266"/><path d="m310.066 294.323h-36.562c-6.786 0-12.287 5.501-12.287 12.287v149.774c0 6.786 5.501 12.287 12.287 12.287h36.562c6.786 0 12.287-5.501 12.287-12.287v-149.775c0-6.785-5.501-12.286-12.287-12.286z" fill="#dd636e"/><path d="m409.784 239.422h-36.562c-6.786 0-12.287 5.501-12.287 12.287v204.675c0 6.786 5.501 12.287 12.287 12.287h36.562c6.786 0 12.287-5.501 12.287-12.287v-204.676c0-6.785-5.501-12.286-12.287-12.286z" fill="#61a2f9"/><path d="m210.348 368.017h-36.562c-6.786 0-12.287 5.501-12.287 12.287v76.079c0 6.786 5.501 12.287 12.287 12.287h36.562c6.786 0 12.287-5.501 12.287-12.287v-76.079c0-6.786-5.501-12.287-12.287-12.287z" fill="#f6e266"/></g><g><path d="m493.544 131.657-51.181-51.18c-2.93-2.928-7.678-2.929-10.607 0s-2.929 7.678 0 10.606l38.378 38.377h-58.784c-24.852 0-45.069-20.223-45.069-45.08v-58.774l44.496 44.497c1.465 1.464 3.385 2.197 5.304 2.197s3.839-.732 5.304-2.197c2.929-2.929 2.929-7.678 0-10.606l-57.3-57.3c-1.408-1.407-3.315-2.197-5.305-2.197h-210.87c-31.692 0-57.713 24.666-59.912 55.803-42.223 18.795-71.738 61.146-71.738 110.267 0 22.444 6.211 44.346 17.962 63.336 2.179 3.522 6.801 4.61 10.324 2.432 3.522-2.18 4.611-6.802 2.432-10.324-8.97-14.496-14.249-30.937-15.451-47.945h105.367c1.951 0 3.869-.762 5.303-2.197l74.467-74.467c16.1 18.544 25.856 42.736 25.856 69.165 0 58.245-47.385 105.63-105.63 105.63-27.123 0-52.904-10.266-72.594-28.906-3.009-2.848-7.755-2.717-10.603.29-2.848 3.008-2.718 7.755.29 10.603 10.052 9.517 21.498 17.116 33.846 22.617v175.626c0 33.123 26.952 60.07 60.08 60.07h287.75c33.128 0 60.08-26.947 60.08-60.07v-314.97c.001-1.989-.789-3.897-2.195-5.303zm-364.15-70.948v97.86h-97.865c3.686-52.28 45.584-94.176 97.865-97.86zm15 0c23.492 1.657 44.889 11.025 61.664 25.589l-61.664 61.664zm291.266 436.291h-287.75c-24.857 0-45.08-20.218-45.08-45.07v-170.106c10.943 3.211 22.393 4.876 34.06 4.876 66.516 0 120.629-54.115 120.629-120.63s-54.113-120.63-120.629-120.63c-11.406 0-22.446 1.592-32.912 4.564 4.588-20.02 22.536-35.004 43.932-35.004h203.37v69.38c0 33.128 26.947 60.08 60.069 60.08h69.391v307.47c0 24.852-20.222 45.07-45.08 45.07z"/><path d="m310.066 286.823h-36.563c-10.911 0-19.787 8.876-19.787 19.787v149.774c0 10.91 8.876 19.787 19.787 19.787h36.563c10.91 0 19.786-8.876 19.786-19.787v-149.775c.001-10.91-8.875-19.786-19.786-19.786zm4.787 169.56c0 2.639-2.147 4.787-4.786 4.787h-36.563c-2.64 0-4.787-2.147-4.787-4.787v-149.774c0-2.639 2.147-4.787 4.787-4.787h36.563c2.639 0 4.786 2.147 4.786 4.787z"/><path d="m409.784 231.922h-36.563c-10.91 0-19.786 8.876-19.786 19.787v204.675c0 10.91 8.876 19.787 19.786 19.787h36.563c10.91 0 19.787-8.876 19.787-19.787v-204.676c0-10.91-8.877-19.786-19.787-19.786zm4.787 224.461c0 2.639-2.147 4.787-4.787 4.787h-36.563c-2.639 0-4.786-2.147-4.786-4.787v-204.675c0-2.639 2.147-4.787 4.786-4.787h36.563c2.64 0 4.787 2.147 4.787 4.787z"/><path d="m210.348 360.517h-36.563c-10.91 0-19.787 8.876-19.787 19.787v76.08c0 10.91 8.876 19.787 19.787 19.787h36.563c10.91 0 19.787-8.876 19.787-19.787v-76.08c0-10.91-8.877-19.787-19.787-19.787zm4.787 95.866c0 2.639-2.147 4.787-4.787 4.787h-36.563c-2.639 0-4.787-2.147-4.787-4.787v-76.08c0-2.639 2.147-4.787 4.787-4.787h36.563c2.639 0 4.787 2.147 4.787 4.787z"/><path d="m423.51 158.569h-124.952c-4.143 0-7.5 3.358-7.5 7.5s3.357 7.5 7.5 7.5h124.952c4.143 0 7.5-3.358 7.5-7.5s-3.358-7.5-7.5-7.5z"/><path d="m423.51 187.678h-84.555c-4.143 0-7.5 3.358-7.5 7.5s3.357 7.5 7.5 7.5h84.555c4.143 0 7.5-3.358 7.5-7.5s-3.358-7.5-7.5-7.5z"/></g></g></svg>