<svg id="Layer_1_1_" enable-background="new 0 0 64 64" height="512" viewBox="0 0 64 64" width="512" xmlns="http://www.w3.org/2000/svg"><circle cx="53" cy="11" fill="#5eb38c" r="9"/><circle cx="53" cy="32" fill="#5eb38c" r="9"/><circle cx="53" cy="53" fill="#cc6c66" r="9"/><g fill="#adc4e6"><path d="m2 2h16v18h-16z"/><path d="m2 23h16v18h-16z"/><path d="m2 44h16v18h-16z"/></g><path d="m11 11h-2c-2.209 0-4 1.791-4 4v5h10v-5c0-2.209-1.791-4-4-4z" fill="#759acc"/><path d="m10 11-2 6 2 3 2-3z" fill="#e6e6e6"/><path d="m11 32h-2c-2.209 0-4 1.791-4 4v5h10v-5c0-2.209-1.791-4-4-4z" fill="#759acc"/><path d="m10 32-2 6 2 3 2-3z" fill="#e6e6e6"/><path d="m11 53h-2c-2.209 0-4 1.791-4 4v5h10v-5c0-2.209-1.791-4-4-4z" fill="#759acc"/><path d="m10 53-2 6 2 3 2-3z" fill="#e6e6e6"/><circle cx="10" cy="8" fill="#f2d0a3" r="3"/><circle cx="10" cy="29" fill="#f2d0a3" r="3"/><circle cx="10" cy="50" fill="#f2d0a3" r="3"/><path d="m51.5 15.5c-.265 0-.52-.105-.707-.293l-3-3 1.414-1.414 2.236 2.236 5.298-6.18 1.518 1.301-6 7c-.181.212-.442.338-.721.349-.013.001-.025.001-.038.001z" fill="#e6e6e6"/><path d="m51.5 36.5c-.265 0-.52-.105-.707-.293l-3-3 1.414-1.414 2.236 2.236 5.298-6.18 1.518 1.301-6 7c-.181.212-.442.338-.721.349-.013.001-.025.001-.038.001z" fill="#e6e6e6"/><path d="m57.596 50.318-1.414-1.414-3.182 3.182-3.182-3.182-1.414 1.414 3.182 3.182-3.182 3.182 1.414 1.414 3.182-3.182 3.182 3.182 1.414-1.414-3.182-3.182z" fill="#e6e6e6"/><path d="m41.667 11-6.667-4v3h-14v2h14v3z" fill="#7a8899"/><path d="m41.667 32-6.667-4v3h-14v2h14v3z" fill="#7a8899"/><path d="m41.667 53-6.667-4v3h-14v2h14v3z" fill="#7a8899"/></svg>