<svg height="512" viewBox="0 0 64 64" width="512" xmlns="http://www.w3.org/2000/svg"><g id="_03-Voting" data-name="03-Voting"><path d="m31 54v-18l4-4h13v-6l6 6h5l4 4v18l-4 4h-24z" fill="#f2f6fc"/><path d="m46 32h-11l-2 2h13z" fill="#dce1eb"/><path d="m59 32h-5l-6-6v4l4 4h5l4 4v18l2-2v-18z" fill="#dce1eb"/><path d="m33 10v18l-4 4h-13v6l-6-6h-5l-4-4v-18l4-4h24z" fill="#f2f6fc"/><path d="m18 32h11l2-2h-13z" fill="#dce1eb"/><path d="m5 32h5l6 6v-4l-4-4h-5l-4-4v-18l-2 2v18z" fill="#dce1eb"/><path d="m1 46h9v15h-9z" fill="#19cffc"/><path d="m16 61v2h-6v-2-15-2h6v2z" fill="#19cffc"/><path d="m35 51h2a2.006 2.006 0 0 1 2 2 2.015 2.015 0 0 1 -2 2h-2a2.006 2.006 0 0 1 2 2 2.015 2.015 0 0 1 -2 2h-2a2.006 2.006 0 0 1 2 2 2.015 2.015 0 0 1 -2 2h-11l-3-2h-3v-15h3l4-4v-4s4 0 4 4v3l2 2h6a2.006 2.006 0 0 1 2 2 2.015 2.015 0 0 1 -2 2z" fill="#ffdaaa"/><path d="m18 48h3l4-4v-4a5.064 5.064 0 0 1 1.715.374c-.906-2.364-3.715-2.374-3.715-2.374v4l-4 4h-3v15h2z" fill="#ffb680"/><path d="m13 44h3v19h-3z" fill="#b5efff"/><path d="m7 46h3v15h-3z" fill="#1ea1e3"/><path d="m26 49h11a0 0 0 0 1 0 0 2 2 0 0 1 -2 2h-9a0 0 0 0 1 0 0v-2a0 0 0 0 1 0 0z" fill="#ffb680"/><path d="m26 57h11a0 0 0 0 1 0 0 2 2 0 0 1 -2 2h-9a0 0 0 0 1 0 0v-2a0 0 0 0 1 0 0z" fill="#ffb680"/><path d="m26 61h9a0 0 0 0 1 0 0 2 2 0 0 1 -2 2h-7a0 0 0 0 1 0 0v-2a0 0 0 0 1 0 0z" fill="#ffb680"/><path d="m26 53h13a0 0 0 0 1 0 0 2 2 0 0 1 -2 2h-11a0 0 0 0 1 0 0v-2a0 0 0 0 1 0 0z" fill="#ffb680"/><path d="m54 3h9v15h-9z" fill="#ffda45"/><path d="m48 3v-2h6v2 15 2h-6v-2z" fill="#ffda45"/><path d="m29 13h-2a2.006 2.006 0 0 1 -2-2 2.015 2.015 0 0 1 2-2h2a2.006 2.006 0 0 1 -2-2 2.015 2.015 0 0 1 2-2h2a2.006 2.006 0 0 1 -2-2 1.955 1.955 0 0 1 .59-1.41 1.955 1.955 0 0 1 1.41-.59h11l3 2h3v15h-3l-4 4v4s-4 0-4-4v-3l-2-2h-6a2.006 2.006 0 0 1 -2-2 2.015 2.015 0 0 1 2-2z" fill="#ffdaaa"/><path d="m46 16h-3l-4 4v4a5.064 5.064 0 0 1 -1.715-.374c.906 2.364 3.715 2.374 3.715 2.374v-4l4-4h3v-15h-2z" fill="#ffb680"/><path d="m48 1h3v19h-3z" fill="#fff04a" transform="matrix(-1 0 0 -1 99 21)"/><path d="m54 3h3v15h-3z" fill="#ffa426" transform="matrix(-1 0 0 -1 111 21)"/><path d="m27 13h11a0 0 0 0 1 0 0 2 2 0 0 1 -2 2h-9a0 0 0 0 1 0 0v-2a0 0 0 0 1 0 0z" fill="#ffb680" transform="matrix(-1 0 0 -1 65 28)"/><path d="m27 5h11a0 0 0 0 1 0 0 2 2 0 0 1 -2 2h-9a0 0 0 0 1 0 0v-2a0 0 0 0 1 0 0z" fill="#ffb680" transform="matrix(-1 0 0 -1 65 12)"/><path d="m29 1h9a0 0 0 0 1 0 0 2 2 0 0 1 -2 2h-7a0 0 0 0 1 0 0v-2a0 0 0 0 1 0 0z" fill="#ffb680" transform="matrix(-1 0 0 -1 67 4)"/><path d="m25 9h13a0 0 0 0 1 0 0 2 2 0 0 1 -2 2h-11a0 0 0 0 1 0 0v-2a0 0 0 0 1 0 0z" fill="#ffb680" transform="matrix(-1 0 0 -1 63 20)"/><circle cx="17" cy="19" fill="#ff583e" r="8"/><path d="m13 19a8 8 0 0 1 6-7.738 8 8 0 1 0 0 15.476 8 8 0 0 1 -6-7.738z" fill="#ffa480"/><circle cx="47" cy="45" fill="#06ccab" r="8"/><path d="m43 45a8 8 0 0 1 6-7.738 8 8 0 1 0 0 15.476 8 8 0 0 1 -6-7.738z" fill="#b3f2d7"/><g fill="#142300"><path d="m40 53a3 3 0 0 0 -2.22-2.884 2.99 2.99 0 0 0 -2.78-4.116h-5.586l-1.414-1.414v-2.586a4.821 4.821 0 0 0 -5-5 1 1 0 0 0 -1 1v3.586l-3.414 3.414h-1.586v-1a1 1 0 0 0 -1-1h-6a1 1 0 0 0 -1 1v1h-8v2h8v2h2v-4h4v17h-4v-11h-2v9h-8v2h8v1a1 1 0 0 0 1 1h6a1 1 0 0 0 1-1v-1h1.7l2.748 1.832a1.006 1.006 0 0 0 .552.168h11a2.99 2.99 0 0 0 2.78-4.116 2.975 2.975 0 0 0 2-4 3 3 0 0 0 2.22-2.884zm-3 1h-11v2h9a1 1 0 0 1 0 2h-9v2h7a1 1 0 0 1 0 2h-10.7l-2.748-1.832a1.006 1.006 0 0 0 -.552-.168h-2v-13h2a1 1 0 0 0 .707-.293l4-4a1 1 0 0 0 .293-.707v-2.846a2.687 2.687 0 0 1 2 2.846v3a1 1 0 0 0 .293.707l2 2a1 1 0 0 0 .707.293h6a1 1 0 0 1 0 2h-9v2h11a1 1 0 0 1 0 2z"/><path d="m24 11a3 3 0 0 0 2.22 2.884 2.99 2.99 0 0 0 2.78 4.116h5.586l1.414 1.414v2.586a4.821 4.821 0 0 0 5 5 1 1 0 0 0 1-1v-3.586l3.414-3.414h1.586v1a1 1 0 0 0 1 1h6a1 1 0 0 0 1-1v-1h8v-2h-8v-2h-2v4h-4v-17h4v11h2v-9h8v-2h-8v-1a1 1 0 0 0 -1-1h-6a1 1 0 0 0 -1 1v1h-1.7l-2.745-1.832a1.006 1.006 0 0 0 -.555-.168h-11a2.99 2.99 0 0 0 -2.78 4.116 2.975 2.975 0 0 0 -2 4 3 3 0 0 0 -2.22 2.884zm3-1h11v-2h-9a1 1 0 0 1 0-2h9v-2h-7a1 1 0 0 1 0-2h10.7l2.748 1.832a1.006 1.006 0 0 0 .552.168h2v13h-2a1 1 0 0 0 -.707.293l-4 4a1 1 0 0 0 -.293.707v2.846a2.687 2.687 0 0 1 -2-2.846v-3a1 1 0 0 0 -.293-.707l-2-2a1 1 0 0 0 -.707-.293h-6a1 1 0 0 1 0-2h9v-2h-11a1 1 0 0 1 0-2z"/><path d="m5 33h4.586l5.707 5.707a1 1 0 0 0 1.707-.707v-5h12a1 1 0 0 0 .707-.293l4-4a1 1 0 0 0 .293-.707v-8h-2v7.586l-3.414 3.414h-12.586a1 1 0 0 0 -1 1v3.586l-4.293-4.293a1 1 0 0 0 -.707-.293h-4.586l-3.414-3.414v-17.172l3.414-3.414h18.586v-2h-19a1 1 0 0 0 -.707.293l-4 4a1 1 0 0 0 -.293.707v18a1 1 0 0 0 .293.707l4 4a1 1 0 0 0 .707.293z"/><path d="m63.707 35.293-4-4a1 1 0 0 0 -.707-.293h-4.586l-5.707-5.707a1 1 0 0 0 -1.707.707v5h-12a1 1 0 0 0 -.707.293l-4 4a1 1 0 0 0 -.293.707v8h2v-7.586l3.414-3.414h12.586a1 1 0 0 0 1-1v-3.586l4.293 4.293a1 1 0 0 0 .707.293h4.586l3.414 3.414v17.172l-3.414 3.414h-18.586v2h19a1 1 0 0 0 .707-.293l4-4a1 1 0 0 0 .293-.707v-18a1 1 0 0 0 -.293-.707z"/><path d="m17 10a9 9 0 1 0 9 9 9.011 9.011 0 0 0 -9-9zm0 16a7 7 0 1 1 7-7 7.008 7.008 0 0 1 -7 7z"/><path d="m47 54a9 9 0 1 0 -9-9 9.01 9.01 0 0 0 9 9zm0-16a7 7 0 1 1 -7 7 7.008 7.008 0 0 1 7-7z"/><path d="m45 49a1 1 0 0 0 .707-.293l6-6-1.414-1.414-5.293 5.293-1.293-1.293-1.414 1.414 2 2a1 1 0 0 0 .707.293z"/><path d="m20.293 14.293-3.293 3.293-3.293-3.293-1.414 1.414 3.293 3.293-3.293 3.293 1.414 1.414 3.293-3.293 3.293 3.293 1.414-1.414-3.293-3.293 3.293-3.293z"/></g></g></svg>